<svg xmlns="http://www.w3.org/2000/svg" width="512" height="512" viewBox="0 0 512 512">
  <circle cx="256" cy="256" r="230" fill="#3b5998"/>
  <path d="M256,100C170,100 130,150 130,150V280C130,380 256,430 256,430C256,430 382,380 382,280V150C382,150 342,100 256,100Z" stroke="rgba(255,255,255,0.3)" stroke-width="20" fill="none"/>
  <rect x="166" y="160" width="70" height="190" rx="10" fill="#FFFFFF"/>
  <rect x="276" y="160" width="70" height="190" rx="10" fill="#FFFFFF"/>
  <path d="M166,256C166,256 220,230 256,230C292,230 346,256 346,256V286C346,286 292,260 256,260C220,260 166,286 166,286V256Z" fill="#81E6D9"/>
</svg>
